# xmcd
#
# Track frame offsets:
#	150
#	19900
#	35862
#	54675
#	71622
#	88387
#	105362
#	120957
#	135047
#	151427
#	170600
#	185172
#	198572
#
# Disc length: 2861 seconds
#
# Revision: 0
# Processed by: cddbd v1.5.2PL0 Copyright (c) Steve Scherf et al.
# Submitted via: audiograbber 1.83.01
#
DISCID=b50b2b0d
DTITLE=JOSE MARIA NAPOLEON - EL POETA DE LA CANCION JOSE MARIA NAPOLEON CD 1
DYEAR=1990
DGENRE=Balada
TTITLE0=HOY
TTITLE1=ELLA Y EL
TTITLE2=EL GRILLO
TTITLE3=SI ALGUNA VEZ
TTITLE4=CELOS
TTITLE5=CADA VEZ
TTITLE6=YO TE PERDI
TTITLE7=BAILA BAILA
TTITLE8=TU PRIMERA VEZ
TTITLE9=30 AÑOS
TTITLE10=PAJARILLO
TTITLE11=ESAS MUJERES
TTITLE12=HOMBRE VIVE
EXTD=
EXTT0=
EXTT1=
EXTT2=
EXTT3=
EXTT4=
EXTT5=
EXTT6=
EXTT7=
EXTT8=
EXTT9=
EXTT10=
EXTT11=
EXTT12=
PLAYORDER=
